<svg width="56" height="70" viewBox="0 0 56 70" fill="none" xmlns="http://www.w3.org/2000/svg">
<path fill-rule="evenodd" clip-rule="evenodd" d="M7.40619 10.8334C7.40619 8.07195 9.64477 5.83337 12.4062 5.83337H43.5516C46.313 5.83337 48.5516 8.07195 48.5516 10.8334V65C48.5516 67.7615 46.313 70 43.5516 70H12.4062C9.64477 70 7.40619 67.7615 7.40619 65V10.8334ZM13.1665 24.5834C13.1665 19.0605 17.6437 14.5834 23.1665 14.5834H32.7912C38.3141 14.5834 42.7912 19.0605 42.7912 24.5834V50.5209C42.7912 56.0437 38.3141 60.5209 32.7912 60.5209H23.1665C17.6437 60.5209 13.1665 56.0437 13.1665 50.5209V24.5834ZM22.9477 9.47924C22.545 9.47924 22.2185 9.8057 22.2185 10.2084C22.2185 10.6111 22.545 10.9376 22.9477 10.9376H33.0101C33.4128 10.9376 33.7392 10.6111 33.7392 10.2084C33.7392 9.8057 33.4128 9.47924 33.0101 9.47924H22.9477Z" fill="#464749"/>
<line x1="48.8745" y1="4.375" x2="48.8745" stroke="#494949"/>
<line y1="-0.5" x2="4.93503" y2="-0.5" transform="matrix(0.998211 -0.0597887 0.0760651 0.997103 50.8351 7.01501)" stroke="#494949"/>
<line y1="-0.5" x2="5.44099" y2="-0.5" transform="matrix(0.747275 -0.664514 0.749622 0.661866 50.1973 5.8031)" stroke="#494949"/>
<rect x="13.1665" y="14.5834" width="29.6247" height="45.9375" fill="white"/>
<rect x="25" y="35" width="27.156" height="14.5833" fill="#488CDB"/>
<path d="M31 52.6459V49H40.3348L31 52.6459Z" fill="#488CDB"/>
<rect x="29.6896" y="38.9062" width="18.5804" height="1.30208" rx="0.651042" fill="#88B0DF"/>
<rect x="36.8359" y="44.1146" width="11.4341" height="1.30208" rx="0.651042" fill="#88B0DF"/>
<rect x="29.6896" y="41.5104" width="18.5804" height="1.30208" rx="0.651042" fill="#88B0DF"/>
<path d="M0 24.0625H31.2705V38.6458H0V24.0625Z" fill="#FBE699"/>
<path d="M25.7477 40.9192L25.7453 38.0001L15 38.005L25.7477 40.9192Z" fill="#FBE699"/>
<rect x="4.93744" y="27.7084" width="21.3956" height="1.45833" rx="0.729167" fill="#FFF2C0"/>
<rect x="4.93744" y="33.5416" width="13.1665" height="1.45833" rx="0.729167" fill="#FFF2C0"/>
<rect x="4.93744" y="30.625" width="21.3956" height="1.45833" rx="0.729167" fill="#FFF2C0"/>
</svg>
