<svg width="20" height="20" viewBox="0 0 20 20" fill="none" xmlns="http://www.w3.org/2000/svg">
<path fill-rule="evenodd" clip-rule="evenodd" d="M10 1.66663C5.39169 1.66663 1.66669 5.39163 1.66669 9.99996C1.66669 14.6083 5.39169 18.3333 10 18.3333C14.6084 18.3333 18.3334 14.6083 18.3334 9.99996C18.3334 5.39163 14.6084 1.66663 10 1.66663ZM12.1584 6.66663L10 8.82496L7.84169 6.66663L6.66669 7.84163L8.82502 9.99996L6.66669 12.1583L7.84169 13.3333L10 11.175L12.1584 13.3333L13.3334 12.1583L11.175 9.99996L13.3334 7.84163L12.1584 6.66663ZM3.33335 9.99996C3.33335 13.675 6.32502 16.6666 10 16.6666C13.675 16.6666 16.6667 13.675 16.6667 9.99996C16.6667 6.32496 13.675 3.33329 10 3.33329C6.32502 3.33329 3.33335 6.32496 3.33335 9.99996Z" fill="#4E4E4E"/>
</svg>
