<svg width="57" height="63" viewBox="0 0 57 63" fill="none" xmlns="http://www.w3.org/2000/svg">
<path d="M36.4511 2.81409H47.0756C48.8207 2.81409 50.2362 4.37863 50.2362 6.30739V59.5067C50.2362 61.4355 48.8207 63 47.0756 63H9.92577C8.17915 63 6.76361 61.4355 6.76361 59.5067V6.30739C6.76361 4.37863 8.17915 2.81409 9.92577 2.81409H20.5486" fill="#F6355F"/>
<path d="M36.4512 9.66565H43.6454V56.1483H13.3546V9.66565H20.5495" fill="white"/>
<path d="M36.4512 11.5067H20.5495V3.49392C20.5495 1.56442 21.9648 0 23.7107 0H33.2898C35.0356 0 36.4509 1.56442 36.4509 3.49392V11.5067H36.4512Z" fill="#F2CA7F"/>
<path d="M32.8367 6.50391H24.163V8.75702H32.8367V6.50391Z" fill="#488CDB"/>
<path d="M38.9067 20.084H23.3503V22.3371H38.9067V20.084Z" fill="#898686"/>
<path d="M38.9067 45.5392H23.3503V47.7923H38.9067V45.5392Z" fill="#898686"/>
<path d="M38.9067 37.0541H23.3503V39.3072H38.9067V37.0541Z" fill="#898686"/>
<path d="M38.9067 28.5691H23.3503V30.8222H38.9067V28.5691Z" fill="#898686"/>
<path d="M19.1116 22.337C19.6744 22.337 20.1308 21.8326 20.1308 21.2105C20.1308 20.5883 19.6744 20.084 19.1116 20.084C18.5487 20.084 18.0923 20.5883 18.0923 21.2105C18.0923 21.8326 18.5487 22.337 19.1116 22.337Z" fill="#F2CA7F"/>
<path d="M19.1116 30.8221C19.6744 30.8221 20.1308 30.3177 20.1308 29.6956C20.1308 29.0734 19.6744 28.5691 19.1116 28.5691C18.5487 28.5691 18.0923 29.0734 18.0923 29.6956C18.0923 30.3177 18.5487 30.8221 19.1116 30.8221Z" fill="#F2CA7F"/>
<path d="M19.1116 39.3071C19.6744 39.3071 20.1308 38.8027 20.1308 38.1806C20.1308 37.5584 19.6744 37.0541 19.1116 37.0541C18.5487 37.0541 18.0923 37.5584 18.0923 38.1806C18.0923 38.8027 18.5487 39.3071 19.1116 39.3071Z" fill="#F2CA7F"/>
<path d="M19.1116 47.7922C19.6744 47.7922 20.1308 47.2878 20.1308 46.6657C20.1308 46.0435 19.6744 45.5392 19.1116 45.5392C18.5487 45.5392 18.0923 46.0435 18.0923 46.6657C18.0923 47.2878 18.5487 47.7922 19.1116 47.7922Z" fill="#F2CA7F"/>
</svg>
