<svg width="57" height="55" viewBox="0 0 57 55" fill="none" xmlns="http://www.w3.org/2000/svg">
<rect x="3" y="1.74597" width="53" height="50.6349" fill="white"/>
<path d="M27.9951 17.9303C26.5487 17.9303 25.5948 18.0644 25.0453 18.1996V27.1528C25.673 27.2881 26.4098 27.3324 27.4357 27.3324C31.213 27.3324 33.5438 25.4867 33.5438 22.3842C33.5451 19.5941 31.538 17.9303 27.9951 17.9303Z" fill="#0967D5"/>
<path d="M49.6204 0H7.37961C3.64949 0 0.627686 2.91697 0.627686 6.51502V48.4862C0.627686 52.0842 3.65073 55 7.37961 55H49.6204C53.3505 55 56.3711 52.083 56.3711 48.4862V6.51502C56.3723 2.91578 53.3505 0 49.6204 0ZM52.2118 47.4412C52.2118 49.4007 50.5669 50.9854 48.5387 50.9854H8.3844C6.35498 50.9854 4.7101 49.3983 4.7101 47.4412V7.63536C4.7101 5.67835 6.35498 4.09119 8.3844 4.09119H48.5375C50.5669 4.09119 52.2105 5.67835 52.2105 7.63536L52.2118 47.4412Z" fill="#0967D5"/>
<path d="M48.5375 6.59167H8.38441C7.7865 6.59167 7.30023 7.05849 7.30023 7.63662V47.4425C7.30023 48.017 7.78526 48.4874 8.38441 48.4874H48.5375C49.1341 48.4874 49.6204 48.0182 49.6204 47.4425V7.63542C49.6204 7.05849 49.1354 6.59167 48.5375 6.59167ZM37.7044 29.4044C35.2817 31.608 31.6794 32.5979 27.4816 32.5979C26.55 32.5979 25.7523 32.5524 25.0453 32.4626V43.3333H18.0577V13.3856C20.2558 13.0253 23.3123 12.7548 27.649 12.7548C32.0329 12.7548 35.149 13.5651 37.2491 15.1858C39.2525 16.7143 40.6021 19.2351 40.6021 22.2035C40.6021 25.1756 39.5725 27.6964 37.7044 29.4044Z" fill="#0967D5"/>
</svg>
