<svg width="50" height="50" viewBox="0 0 50 50" fill="none" xmlns="http://www.w3.org/2000/svg">
<g clip-path="url(#clip0)">
<path d="M29.4792 0H2.08334C0.937492 0 0 0.937492 0 2.08334V47.9167C0 49.0625 0.937492 50 2.08334 50H39.7917C40.9375 50 41.875 49.0625 41.875 47.9167V12.3958L29.4792 0Z" fill="#F2F2F2"/>
<path d="M31.5625 12.3958H41.875L29.4792 0V10.3125C29.4792 11.4584 30.4167 12.3958 31.5625 12.3958Z" fill="#CDD6E0"/>
<path d="M36.9792 17.3959H21.5625V19.7917H36.9792V17.3959Z" fill="#CDD6E0"/>
<path d="M37.0833 23.75H4.89581V26.1459H37.0833V23.75Z" fill="#CDD6E0"/>
<path d="M37.0833 30.2083H4.89581V32.6041H37.0833V30.2083Z" fill="#CDD6E0"/>
<path d="M30.2083 36.5625H4.89581V38.9584H30.2083V36.5625Z" fill="#CDD6E0"/>
<path d="M13.125 42.9166H4.89581V45.3125H13.125V42.9166Z" fill="#CDD6E0"/>
<path d="M16.4583 4.6875H4.89581V19.8958H16.4583V4.6875Z" fill="#84DBFF"/>
<path d="M27.3959 46.6667L44.4792 29.6875L36.7709 21.9792L19.6876 38.9584C19.5834 39.0626 19.4792 39.1667 19.375 39.3751C19.2709 39.4793 19.2709 39.6876 19.2709 39.7918L19.1667 40.2085L17.6042 46.0418L16.5626 50.0001L20.5209 48.9585L26.3542 47.396L26.7709 47.2918C26.8751 47.2918 27.0834 47.1877 27.1876 47.0835C27.1875 46.875 27.2917 46.875 27.3959 46.6667Z" fill="#FFD15C"/>
<path d="M21.1458 42.1875L39.0624 24.1667L36.7707 21.875L19.6875 38.9583C19.5833 39.0625 19.4792 39.1667 19.375 39.375C19.2708 39.4792 19.2708 39.6875 19.2708 39.7917L19.1666 40.2084L21.1458 42.1875Z" fill="#FF7058"/>
<path d="M27.3958 46.6666L44.4791 29.6874L42.1874 27.3958L24.2708 45.3125L26.25 47.2916L26.6667 47.1875C26.7709 47.1875 26.9792 47.0833 27.0834 46.9791C27.1875 46.8749 27.2916 46.8749 27.3958 46.6666Z" fill="#FF7058"/>
<path d="M20.4167 48.8542L17.5 45.9375L16.4584 49.8958L20.4167 48.8542Z" fill="#334A5E"/>
<path d="M49.375 21.7709L44.5834 16.9792C43.7501 16.1459 42.5 16.1459 41.6667 16.9792L39.1667 19.4793L46.875 27.1876L49.375 24.6875C50.2083 23.9584 50.2083 22.6042 49.375 21.7709Z" fill="#40596B"/>
<path d="M24.2535 45.3059L42.2306 27.339L39.0643 24.1709L21.0872 42.1378L24.2535 45.3059Z" fill="#F1543F"/>
<path d="M46.8111 27.3069L39.0751 19.5753L36.7189 21.9329L44.4549 29.6646L46.8111 27.3069Z" fill="#FFD15C"/>
</g>
<defs>
<clipPath id="clip0">
<rect width="50" height="50" fill="white"/>
</clipPath>
</defs>
</svg>
