<svg width="65" height="62" viewBox="0 0 65 62" fill="none" xmlns="http://www.w3.org/2000/svg">
<g clip-path="url(#clip0)">
<path d="M42.5862 62C41.3479 62 40.3448 61.0433 40.3448 59.8621V57.7241H44.8276V59.8621C44.8276 61.0433 43.8246 62 42.5862 62Z" fill="#1C77C3"/>
<path d="M60.5173 62C59.2789 62 58.2759 61.0433 58.2759 59.8621V57.7241H62.7586V59.8621C62.7586 61.0433 61.7556 62 60.5173 62Z" fill="#1C77C3"/>
<path d="M62.7586 57.7241H40.3448C39.1065 57.7241 38.1035 56.7674 38.1035 55.5862V34.2069C38.1035 30.6643 41.1136 27.7931 44.8276 27.7931H58.2759C61.9898 27.7931 65 30.6643 65 34.2069V55.5862C65 56.7674 63.997 57.7241 62.7586 57.7241Z" fill="#FCB641"/>
<path d="M59.3965 27.7931H44.8276V25.6551C44.8276 24.4739 45.8306 23.5172 47.069 23.5172H57.1552C58.3935 23.5172 59.3965 24.4739 59.3965 25.6551V27.7931Z" fill="#F6355F"/>
<path d="M43.7069 53.4483C43.0883 53.4483 42.5862 52.9705 42.5862 52.3793V34.2069C42.5862 33.6158 43.0883 33.1379 43.7069 33.1379C44.3256 33.1379 44.8276 33.6158 44.8276 34.2069V52.3793C44.8276 52.9705 44.3256 53.4483 43.7069 53.4483Z" fill="#BD8931"/>
<path d="M51.5518 53.4483C50.9332 53.4483 50.4311 52.9705 50.4311 52.3793V34.2069C50.4311 33.6158 50.9332 33.1379 51.5518 33.1379C52.1704 33.1379 52.6725 33.6158 52.6725 34.2069V52.3793C52.6725 52.9705 52.1704 53.4483 51.5518 53.4483Z" fill="#BD8931"/>
<path d="M59.3966 53.4483C58.7779 53.4483 58.2759 52.9705 58.2759 52.3793V34.2069C58.2759 33.6158 58.7779 33.1379 59.3966 33.1379C60.0152 33.1379 60.5173 33.6158 60.5173 34.2069V52.3793C60.5173 52.9705 60.0152 53.4483 59.3966 53.4483Z" fill="#BD8931"/>
<path d="M6.72417 62C5.48581 62 4.48279 61.0433 4.48279 59.8621V57.7241H8.96555V59.8621C8.96555 61.0433 7.96253 62 6.72417 62Z" fill="#1C77C3"/>
<path d="M25.7759 62C24.5375 62 23.5345 61.0433 23.5345 59.8621V57.7241H28.0172V59.8621C28.0172 61.0433 27.0142 62 25.7759 62Z" fill="#1C77C3"/>
<path d="M28.0172 57.7241H4.48276C2.00715 57.7241 0 55.8096 0 53.4482V23.5172C0 21.1559 2.00715 19.2413 4.48276 19.2413H28.0172C30.4928 19.2413 32.5 21.1559 32.5 23.5172V53.4482C32.5 55.8096 30.4928 57.7241 28.0172 57.7241Z" fill="#F6355F"/>
<path d="M12.3276 7.48279H8.96552V19.2414H12.3276V7.48279Z" fill="#0967D5"/>
<path d="M24.6552 7.48279H21.2931V19.2414H24.6552V7.48279Z" fill="#0967D5"/>
<path d="M28.0173 7.48277H5.60345V5.34484C5.60345 4.16363 6.60647 3.20691 7.84483 3.20691H25.7759C27.0142 3.20691 28.0173 4.16363 28.0173 5.34484V7.48277Z" fill="#0967D5"/>
<path d="M10.4 30.1843H5.20001V23.5096L6.93335 22.0264H8.66668L10.4 23.5096V30.1843Z" fill="#FDC567"/>
<path d="M7.80002 23.6579C7.32162 23.6579 6.93335 23.3388 6.93335 22.9441V18.6612C6.93335 18.2665 7.32162 17.9474 7.80002 17.9474C8.27842 17.9474 8.66668 18.2665 8.66668 18.6612V22.9441C8.66668 23.3388 8.27842 23.6579 7.80002 23.6579Z" fill="#FCB641"/>
<path d="M28.0173 26.7241H20.1724C19.5538 26.7241 19.0518 26.2463 19.0518 25.6551C19.0518 25.064 19.5538 24.5862 20.1724 24.5862H28.0173C28.6359 24.5862 29.138 25.064 29.138 25.6551C29.138 26.2463 28.6359 26.7241 28.0173 26.7241Z" fill="#AD3C2B"/>
<path d="M17.3333 52.2105H13V49.4912C13 48.74 13.6464 48.1316 14.4444 48.1316H17.3333V52.2105Z" fill="#1C77C3"/>
<path d="M19.0666 52.2105H17.3333V48.1316H20.8V50.8509C20.8 51.6021 20.0243 52.2105 19.0666 52.2105Z" fill="#FCB641"/>
</g>
<defs>
<clipPath id="clip0">
<rect width="65" height="62" rx="10" fill="white"/>
</clipPath>
</defs>
</svg>
