<svg width="70" height="65" viewBox="0 0 70 65" fill="none" xmlns="http://www.w3.org/2000/svg">
<rect x="6" y="20.6819" width="31" height="30.5303" fill="white"/>
<path d="M59.998 12.9038C59.998 12.9038 59.998 12.3501 59.998 11.6689C59.998 10.9878 59.906 9.47932 59.0737 8.75476C58.655 8.39005 58.0496 8.11209 57.1837 8.11209H52.4962C52.4962 8.11209 49.9983 8.11209 49.9983 10.2884V12.6102C49.9983 15.0813 45.1099 15.0175 45.1099 15.0175L24.9783 15.0273C24.9783 15.0273 19.9979 14.925 19.9979 12.9052V9.94872C19.9979 9.94872 20.1547 8.06738 17.4973 8.06738H12.5002C12.5002 8.06738 9.99442 8.06738 9.99442 10.0943V12.9063C9.99442 12.9063 10.0838 14.1148 8.05774 14.7312C6.51383 15.2006 3.13834 14.7553 1.50625 16.0528C0.659701 16.7243 0 17.8485 0 19.7179V52.4358C0 52.4358 0.1542 56.9327 4.99852 56.9327H64.6852C64.6852 56.9327 70 56.6439 70 52.5814V19.5747C70 19.5747 69.8379 15.0802 64.8408 15.0802C64.8408 15.0788 59.998 14.7841 59.998 12.9038ZM52.4948 12.7533C52.4948 11.4751 53.4643 10.4325 54.8386 10.4325H54.9954C56.3772 10.4325 57.4998 11.4749 57.4998 12.7533V17.3984C57.4998 18.6766 56.4575 19.7179 55.0757 19.7179H54.9189C53.537 19.7179 52.4948 18.678 52.4948 17.3984V12.7533ZM43.9328 35.9681H56.433C57.1213 35.9681 57.6799 36.4857 57.6799 37.1308C57.6799 37.7699 57.1213 38.29 56.433 38.29H43.9328C43.2445 38.29 42.6806 37.7699 42.6806 37.1308C42.6806 36.4855 43.2445 35.9681 43.9328 35.9681ZM57.6049 41.9168C57.6049 42.6004 57.0112 43.0036 56.2788 43.0036H44.0896C43.3572 43.0036 42.7609 42.6004 42.7609 41.9168C42.7609 41.2367 43.356 40.683 44.0896 40.683H56.2788C57.0112 40.6828 57.6049 41.2365 57.6049 41.9168ZM21.3721 22.0483C25.2274 22.0483 28.3526 25.2249 28.3526 29.5088C28.3526 33.7939 25.2271 37.2716 21.3721 37.2716C17.5171 37.2716 14.3942 33.7942 14.3942 29.5088C14.394 25.2249 17.5169 22.0483 21.3721 22.0483ZM12.5753 12.6305C12.5753 11.3522 13.5372 10.4542 14.9191 10.4542H15.0759C16.4577 10.4542 17.4973 11.3509 17.4973 12.6305V17.3984C17.4973 18.6766 16.3748 19.7179 14.9994 19.7179H14.8361C13.4621 19.7179 12.5753 18.678 12.5753 17.3984V12.6305ZM34.4362 47.0589C33.8244 47.8751 32.4528 47.7666 32.4528 47.7666H10.5183C10.5183 47.7666 9.03799 47.8569 8.38592 47.0228C8.03462 46.5727 8.27843 45.6591 8.52081 45.1486L9.11188 43.9004C9.11188 43.9004 10.7425 40.5131 12.6003 38.5487C13.741 37.345 15.0983 37.6195 15.9758 38.0107C16.5163 38.2515 17.1281 38.9544 17.5741 39.3264C18.1899 39.8392 19.276 40.4219 21.0532 40.4542H22.1433C23.9194 40.423 25.0055 39.8392 25.6201 39.3264C26.0672 38.9544 26.6611 38.2309 27.1964 37.982C28.0027 37.6075 29.2277 37.3778 30.3386 38.5501C32.1976 40.5146 33.6676 43.9643 33.6676 43.9643L34.2718 45.1886C34.5218 45.6927 34.7785 46.6014 34.4362 47.0589ZM56.5524 47.5741H43.8162C43.1472 47.5741 42.6067 47.0757 42.6067 46.4523C42.6067 45.83 43.1472 45.3245 43.8162 45.3245H56.5524C57.2147 45.3245 57.7619 45.83 57.7619 46.4523C57.7617 47.0757 57.2147 47.5741 56.5524 47.5741Z" fill="#1C77C3"/>
<rect x="12.5" y="9.84839" width="5" height="9.84848" rx="2" fill="white"/>
<rect x="52.5" y="9.84839" width="5" height="9.84848" rx="2" fill="white"/>
<rect x="42" y="35.947" width="15.7" height="2.46212" rx="1.23106" fill="white"/>
<rect x="42" y="45.303" width="15.7" height="2.46212" rx="1.23106" fill="white"/>
<rect x="42" y="40.625" width="15.7" height="2.46212" rx="1.23106" fill="white"/>
</svg>
